<?xml version="1.0" standalone="yes"?>
<svg xmlns="http://www.w3.org/2000/svg" width="716" height="177">
<path style="fill:#fbfbfb; stroke:none;" d="M220.981 1.71837C215.413 2.55479 197.164 9.07658 195.752 15.0247C194.522 20.1997 205.189 21.7556 205.891 28.0008C208.301 49.4241 206.008 72.4302 206 94C205.999 97.5751 206.474 101.783 204.258 104.856C202.142 107.79 192.734 109.425 196.047 114.571C197.855 117.379 202.128 116.984 205 116.999C213.834 117.046 224.276 118.501 232.941 116.772C235.994 116.162 237.897 113.34 235.968 110.426C233.869 107.258 229.206 107.759 227.603 103.891C225.071 97.7785 227 87.5645 227 81L227 27C227 21.528 230.184 0.336151 220.981 1.71837M257 46C253.397 46.0004 244.798 44.9802 245.466 50.9105C246.137 56.8716 256.011 54.1778 256.891 62.0008C258.143 73.1245 259.567 91.2515 256.427 101.995C255.077 106.616 245.475 109.076 246.752 113.787C247.739 117.43 253.147 116.984 256 116.999C265.465 117.049 275.581 117.984 284.981 116.891C288.206 116.516 291.767 113.927 289.164 110.43C286.63 107.026 281.342 108.761 279.028 104.852C277.406 102.113 277.979 98.0669 277.576 95C276.341 85.6033 273.92 66.8208 278.514 58.2284C281.109 53.375 293.339 57.048 292.534 50.0648C291.86 44.2194 280.965 46 277 46C277 38.1051 274.931 23.5314 280.434 17.1481C285.423 11.3601 303.025 23.0139 301.663 11.9992C299.701 -3.86179 271.251 0.0972443 263.188 7.39043C253.529 16.1283 257 34.3543 257 46M624 112C626.042 118.726 651.67 120.447 652.534 112.935C653.065 108.319 646.905 108.094 644.603 105.49C642.098 102.655 643 97.4851 643 94L643 31C643 23.4489 645.35 10.9406 641.566 4.15201C638.218 -1.85417 615.05 8.59164 612.198 13.3927C608.598 19.4544 620.73 21.3923 621.772 27.0046C625.271 45.8565 622.8 69.8218 621.961 89C621.647 96.1542 620.516 105.038 612 106.566C605.278 107.771 600.151 101.688 598.105 96C594.47 85.8917 593.868 67.6871 601.532 59.2137C605.263 55.0893 616.794 57.2919 617.338 51.9452C617.931 46.1201 610.323 44.3891 606 44.091C595.185 43.3456 585.114 48.6122 579.681 58C571.683 71.817 571.664 92.2908 579.93 105.999C589.386 121.681 610.832 123.82 624 112M73 47L36 47C36 38.5685 33.364 24.9163 36.6034 17.1088C38.3919 12.7981 46.9464 13.4633 46.338 8.08951C45.8617 3.883 40.079 4.04189 37 4.00386C29.73 3.91406 7.91678 0.404007 2.60802 5.74228C-2.64243 11.0219 8.16968 13.4581 10.2577 16.2284C12.1475 18.7357 11.9836 22.0272 11.9992 25C12.0941 42.9989 12 61.0008 12 79C12 85.9493 13.9558 96.4595 11.2577 102.942C9.43307 107.326 4.47011 106.366 2.03241 109.702C-0.00989461 112.497 2.21328 115.714 5.05864 116.566C9.83044 117.996 16.0562 117 21 117C25.5337 117 48.1218 119.77 46.0293 111.129C45.051 107.089 39.2469 107.899 37.179 104.697C32.3757 97.2579 35.9405 77.7573 36.0008 69C36.0262 65.3006 36.0575 61.2193 40.0586 59.6034C45.0715 57.5789 67.6956 56.7487 71.0116 61.3179C76.2909 68.5924 74.2495 92.5274 72.3657 100.995C71.0257 107.019 61.0421 107.268 61.662 112.886C62.1288 117.115 67.9036 116.958 71 116.996C80.5916 117.115 93.739 119.26 102.956 116.566C105.775 115.742 108.717 112.562 106.214 109.738C103.675 106.873 99.307 107.673 97.179 103.891C93.9599 98.17 96 87.4026 96 81C96 62.0062 95.7388 42.9917 96.0039 24C96.0466 20.9351 96.134 17.7557 98.4336 15.4329C100.852 12.9901 109.312 11.7252 105.953 6.43286C104.015 3.37956 99.0687 4.00513 96 4C87.0155 3.98499 77.9806 3.73216 69.0008 4.01543C65.7886 4.11676 60.2667 5.16708 61.8511 9.78705C63.2476 13.8592 69.4692 13.0912 71.5664 17.1088C75.5867 24.8106 73 38.5015 73 47M369 47C369 40.4019 365.854 22.2487 371.318 17.7423C380.313 10.3237 399.616 17.3625 406.424 23.8557C408.56 25.8927 412.817 28.3431 414.879 24.6813C417.458 20.1001 410.731 5.82469 405.956 4.43364C391.622 0.258392 370.95 4 356 4C350.545 4 342.199 2.4521 337.148 4.74228C334.794 5.80971 333.679 8.38466 335.047 10.7253C336.658 13.4819 340.329 13.4602 342.486 15.5633C345.43 18.4345 344.994 23.2463 345 27L345 79C345 86.0702 346.861 96.3253 344.106 102.942C342.284 107.322 337.464 106.374 335.032 109.702C332.99 112.497 335.213 115.714 338.059 116.566C347.525 119.402 361.127 117.051 371 116.999C374.204 116.982 380.04 117.323 380.534 112.91C381.216 106.82 371.551 107.772 369.603 102.941C366.314 94.781 366.984 71.5581 369.318 63.0586C371.666 54.5082 401.249 64.3258 396.377 51.108C393.705 43.8569 375.166 47 369 47M703.982 43.8171C697.14 44.6346 690.887 43.5939 684 44.0903C669.521 45.1339 658.189 60.1246 666.089 74C670.354 81.4893 678.914 85.3683 686 89.6042C689.957 91.9697 698.191 96.2639 697.029 101.996C693.63 118.765 674.449 101.874 669.576 97.1481C667.779 95.4063 665.01 93.3448 662.473 95.0471C658.323 97.832 662.876 115.402 666.51 117.806C669.356 119.688 672.951 117.543 676 117.495C682.81 117.388 689.067 119.786 696 118.535C710.118 115.989 720.833 100.79 712.772 87.0008C708.904 80.3853 701.432 76.543 695 72.8503C690.769 70.4211 680.664 66.3404 681.971 60.0154C684.909 45.7917 700.904 60.0654 705.286 63.6782C707.207 65.2625 710.297 66.3927 711.882 63.6775C714.397 59.3683 710.015 43.0961 703.982 43.8171M159 112C160.16 118.952 185.274 120.253 187.11 113.776C188.66 108.305 178.255 107.441 177.228 101.985C174.49 87.4291 183.412 63.2228 172.467 51.3287C162.655 40.6664 128.108 40.39 121.047 55.0401C119.279 58.7093 121.949 62.698 126.005 62.4622C133.784 62.01 140.713 54.5468 148.996 57.7423C159.303 61.7185 158.963 92.633 154.062 100.985C149.817 108.216 140.379 108.318 137.383 99.9853C132.755 87.1091 153.993 84.8905 151.288 76.1443C150.153 72.4745 144.993 72.8545 142 73.1736C133.733 74.055 125.598 78.4093 120.533 85.0039C111.496 96.7712 116.933 113.243 131 117.557C141.771 120.861 149.997 117.874 159 112M436 44.4282C386.884 51.4804 398.593 125.666 448 118.572C454.326 117.663 460.637 116.029 465.996 112.401C484.355 99.9741 486.231 69.7682 470.7 54.3009C461.946 45.5833 447.917 42.7171 436 44.4282M521 44.4282C471.884 51.4804 483.593 125.666 533 118.572C539.326 117.663 545.637 116.029 550.996 112.401C569.356 99.974 571.231 69.7683 555.7 54.3009C546.946 45.5833 532.917 42.7171 521 44.4282M439 56.3951C462.927 51.0128 465.627 102.122 446 106.606C421.551 112.191 418.425 61.0232 439 56.3951M524 56.3951C547.927 51.0127 550.627 102.122 531 106.606C506.551 112.191 503.425 61.0232 524 56.3951M263 171C267.158 160.56 280.147 159.705 282 172L277 176L297 176L297 174C287.811 166.598 286.227 151.654 282.192 141C280.965 137.759 279.706 129.824 275.819 128.752C271.946 127.683 270.269 133.383 269.345 136C265.94 145.641 262.87 155.417 259.304 164.999C258.393 167.448 253.436 172.482 253.917 174.811C255.002 180.06 275.272 176.218 263 171M315 134C323.323 139.187 323.323 168.813 315 174L315 176L334 176L334 174L330 173C330 162.673 329.811 152.325 330.005 142C330.066 138.72 330.593 133.636 335.015 133.636C347.914 133.636 339.383 149.684 332 152C333.322 158.858 339.684 171.082 345.329 175.397C349.349 178.47 357.336 178.012 359 173C351.132 170.772 346.272 159.999 343 153C351.129 150.579 355.824 140.47 349.566 133.214C343.026 125.63 320.688 125.611 315 134M183 174L183 176C185.951 176.872 194.757 178.78 196.825 175.451C198.169 173.286 193.669 169.336 193.228 166.981C191.875 159.741 193 151.361 193 144L206 162C212.878 159.977 217.587 150.376 220 144L221 144L221 173L217 173L217 177L236 176L236 174C227.596 168.762 227.596 137.238 236 132L236 130C221.726 125.781 215.381 138.625 210 150C207.036 146.523 204.533 142.799 202 139C198.798 134.198 196.389 129.182 190 129.024C188.232 128.98 184.388 128.804 183.921 131.189C183.472 133.478 187.096 135.811 187.683 138.054C189.9 146.529 190.764 169.161 183 174M376 174L376 176L395 176L395 174L391 173L391 134C400.717 130.77 380.325 125.433 377.176 130.549C375.846 132.71 380.466 136.595 380.852 139.019C382.26 147.86 384.123 168.937 376 174M401 129L405 134C402.006 139.205 391.499 147.668 392.988 154C394.332 159.72 403.065 173.059 408.184 175.972C410.505 177.293 418.128 178.223 419.824 175.451C421.293 173.05 413.054 166.046 411.579 164C408.697 160.002 402.832 154.054 402.276 149C401.552 142.419 411.769 134.307 417 132L417 130L401 129M438 130L438 132C446.404 137.238 446.404 168.762 438 174L438 176C448.994 179.25 473.568 181.274 475 167C471.663 167.984 469.331 170.652 465.985 171.567C451.068 175.645 453 162.192 453 152C465.745 152 465.745 147 453 147C453 128.964 461.733 136.138 474 138C470.508 125.247 449.137 126.708 438 130M492 140L494 140C508.926 121.046 508.458 158.086 506.772 166.981C506.254 169.713 501.451 172.493 501.921 174.826C502.95 179.943 520.48 177.58 522 173C512.586 169.182 515.999 154.53 516 146C516 142.468 514.956 136.239 519.148 134.623C523.669 132.879 527.547 137.963 531 140C533.838 125.473 516.121 129 507 129C503.531 129 497.63 127.893 494.649 130.028C491.524 132.265 491.312 136.689 492 140M273 142L278 158L268 158L273 142z"/>
</svg>
